<svg xmlns="http://www.w3.org/2000/svg" width="2048" height="1449" viewBox="0 0 2048 1449" version="1.1"><path d="M 397 117.487 L 397 201.991 294.750 202.245 L 192.500 202.500 192.198 691.500 C 191.984 1038.049, 192.213 1184.141, 192.985 1193 C 198.243 1253.383, 223.992 1307.159, 267.691 1349.023 C 302.754 1382.614, 343.645 1403.226, 395 1413.197 L 406.500 1415.430 1029.750 1415.723 L 1653 1416.016 1653 1352.508 L 1653 1289 1754.500 1289 L 1856 1289 1856 781.174 C 1856 432.098, 1855.670 269.933, 1854.944 262.424 C 1849.236 203.408, 1825.606 151.576, 1785.508 110.118 C 1746.799 70.096, 1702.799 46.876, 1644.500 35.705 L 1633.500 33.597 1015.250 33.290 L 397 32.984 397 117.487 M 527 288 L 527 373 463.105 373 L 399.211 373 398.355 388.750 C 397.885 397.413, 397.500 538.825, 397.500 703 C 397.500 1029.397, 397.095 1004.906, 402.959 1033.328 C 410.888 1071.757, 427.824 1108.526, 452.678 1141.267 C 463.816 1155.941, 488.889 1180.690, 504 1191.929 C 546.547 1223.571, 593.043 1240.779, 647.395 1244.999 C 662.024 1246.135, 1369.891 1246.427, 1463.835 1245.336 L 1521 1244.672 1521 1160.336 L 1521 1076 1586.018 1076 L 1651.037 1076 1650.747 760.750 L 1650.457 445.500 1648.187 431.631 C 1643.377 402.246, 1635.912 378.795, 1622.964 352.400 C 1594.604 294.583, 1544.591 247.811, 1485.178 223.540 C 1457.791 212.353, 1432.290 206.461, 1400.605 204.001 C 1392.275 203.354, 1235.338 203, 957.355 203 L 527 203 527 288 M 692.500 430.080 C 683.642 431.247, 667.941 435.235, 661.750 437.891 L 657 439.929 657 493.964 L 657 548 617.639 548 L 578.279 548 577.648 553.250 C 577.301 556.138, 577.022 634.550, 577.027 727.500 C 577.037 910.632, 576.912 906.093, 582.483 925.500 C 586.008 937.781, 595.525 956.717, 603.386 967.092 C 619.392 988.217, 642.337 1004.818, 666.789 1012.967 C 685.133 1019.081, 689.478 1019.500, 734.500 1019.500 C 779.371 1019.500, 781.547 1019.287, 801.500 1012.932 C 847.695 998.219, 883.106 955.615, 889.932 906.533 C 891.363 896.243, 891.386 552.445, 889.956 542.552 C 885.760 513.517, 873.130 488.319, 852.389 467.602 C 834.022 449.255, 813.971 438.385, 786.500 431.882 C 778.263 429.932, 774.195 429.727, 738.500 429.455 C 717.050 429.291, 696.350 429.573, 692.500 430.080 M 1238.500 429.655 C 1230.734 430.445, 1218.391 433.213, 1209.250 436.215 L 1200 439.253 1200 493.626 L 1200 548 1160.631 548 L 1121.262 548 1120.642 551.750 C 1120.301 553.813, 1120.019 632.900, 1120.015 727.500 C 1120.007 913.928, 1119.812 906.775, 1125.443 926.206 C 1137.055 966.276, 1170.806 1000.827, 1210.500 1013.278 C 1229.604 1019.270, 1232.041 1019.500, 1276.500 1019.500 C 1321.516 1019.500, 1325.868 1019.080, 1344.196 1012.972 C 1382.748 1000.124, 1414.129 968.745, 1426.969 930.203 C 1433.982 909.152, 1433.500 924.337, 1433.500 724.500 C 1433.500 524.663, 1433.982 539.848, 1426.969 518.797 C 1414.388 481.034, 1384.158 450.270, 1346.244 436.646 C 1328.790 430.374, 1323.021 429.741, 1281 429.484 C 1259.825 429.354, 1240.700 429.431, 1238.500 429.655" stroke="none" fill="#040404" fill-rule="evenodd"/></svg>